<?xml version="1.0" encoding="utf-8"?>
<!-- Generator: Adobe Illustrator 25.2.0, SVG Export Plug-In . SVG Version: 6.00 Build 0)  -->
<svg version="1.1" id="Слой_1" xmlns="http://www.w3.org/2000/svg" xmlns:xlink="http://www.w3.org/1999/xlink" x="0px" y="0px"
	 viewBox="0 0 89.8 89.8" style="enable-background:new 0 0 89.8 89.8;" xml:space="preserve">
<style type="text/css">
	.st0{fill-rule:evenodd;clip-rule:evenodd;fill:url(#SVGID_1_);}
	.st1{fill-rule:evenodd;clip-rule:evenodd;fill:#C4C4C4;}
</style>
<linearGradient id="SVGID_1_" gradientUnits="userSpaceOnUse" x1="36.0877" y1="89.3949" x2="82.347" y2="24.5553" gradientTransform="matrix(1 0 0 -1 0 90.0751)">
	<stop  offset="0" style="stop-color:#DF5950"/>
	<stop  offset="1" style="stop-color:#451046"/>
</linearGradient>
<path class="st0" d="M66.5,23.3c-12.1-12.1-31.6-12.1-43.7,0L12.7,13.2c17.6-17.6,46.2-17.6,63.9,0c17.6,17.6,17.6,46.2,0,63.9
	L66.5,67C78.6,54.9,78.6,35.4,66.5,23.3z"/>
<path class="st1" d="M23.3,66.5C35.4,78.6,54.7,78.8,66.5,67l10.1,10.1C59.3,94.3,31.1,94,13.4,76.4c-17.6-17.6-18-45.9-0.7-63.1
	l10.1,10.1C11,35.1,11.2,54.4,23.3,66.5z"/>
</svg>
